<svg width="24" height="22" viewBox="0 0 24 22" fill="none" xmlns="http://www.w3.org/2000/svg">
<path d="M8.02778 1H15.9722C16.1937 1.00001 16.4078 1.08023 16.5747 1.22583C16.7416 1.37142 16.8502 1.57255 16.8803 1.792L16.8889 1.91667V5.88889H19.0278C20.0813 5.88889 21.0916 6.30739 21.8366 7.05233C22.5815 7.79726 23 8.80761 23 9.86111V17.8056C23 18.8591 22.5815 19.8694 21.8366 20.6143C21.0916 21.3593 20.0813 21.7778 19.0278 21.7778H4.97222C3.91872 21.7778 2.90837 21.3593 2.16344 20.6143C1.4185 19.8694 1 18.8591 1 17.8056V9.86111C1 8.80761 1.4185 7.79726 2.16344 7.05233C2.90837 6.30739 3.91872 5.88889 4.97222 5.88889H7.11111V1.91667C7.11112 1.69515 7.19134 1.48114 7.33694 1.3142C7.48253 1.14725 7.68366 1.03868 7.90311 1.00856L8.02778 1H15.9722H8.02778ZM19.0278 7.72222H4.97222C4.40495 7.72222 3.86092 7.94757 3.4598 8.34869C3.05868 8.74981 2.83333 9.29384 2.83333 9.86111V17.8056C2.83333 18.9862 3.79156 19.9444 4.97222 19.9444H19.0278C19.595 19.9444 20.1391 19.7191 20.5402 19.318C20.9413 18.9169 21.1667 18.3728 21.1667 17.8056V9.86111C21.1667 9.29384 20.9413 8.74981 20.5402 8.34869C20.1391 7.94757 19.595 7.72222 19.0278 7.72222ZM15.0556 2.83333H8.94444V5.88889H15.0556V2.83333Z" fill="#C5C5C5"/>
<path d="M8.02778 1H15.9722C16.1937 1.00001 16.4078 1.08023 16.5747 1.22583C16.7416 1.37142 16.8502 1.57255 16.8803 1.792L16.8889 1.91667V5.88889H19.0278C20.0813 5.88889 21.0916 6.30739 21.8366 7.05233C22.5815 7.79726 23 8.80761 23 9.86111V17.8056C23 18.8591 22.5815 19.8694 21.8366 20.6143C21.0916 21.3593 20.0813 21.7778 19.0278 21.7778H4.97222C3.91872 21.7778 2.90837 21.3593 2.16344 20.6143C1.4185 19.8694 1 18.8591 1 17.8056V9.86111C1 8.80761 1.4185 7.79726 2.16344 7.05233C2.90837 6.30739 3.91872 5.88889 4.97222 5.88889H7.11111V1.91667C7.11112 1.69515 7.19134 1.48114 7.33694 1.3142C7.48253 1.14725 7.68366 1.03868 7.90311 1.00856L8.02778 1ZM8.02778 1H15.9722H8.02778ZM19.0278 7.72222H4.97222C4.40495 7.72222 3.86092 7.94757 3.4598 8.34869C3.05868 8.74981 2.83333 9.29384 2.83333 9.86111V17.8056C2.83333 18.9862 3.79156 19.9444 4.97222 19.9444H19.0278C19.595 19.9444 20.1391 19.7191 20.5402 19.318C20.9413 18.9169 21.1667 18.3728 21.1667 17.8056V9.86111C21.1667 9.29384 20.9413 8.74981 20.5402 8.34869C20.1391 7.94757 19.595 7.72222 19.0278 7.72222ZM15.0556 2.83333H8.94444V5.88889H15.0556V2.83333Z" stroke="white" stroke-width="0.3"/>
</svg>
