<svg width="18" height="18" viewBox="0 0 18 18" fill="none" xmlns="http://www.w3.org/2000/svg">
<path d="M14 15H3V4H9.61L10.61 3H3C2.73478 3 2.48043 3.10536 2.29289 3.29289C2.10536 3.48043 2 3.73478 2 4V15C2 15.2652 2.10536 15.5196 2.29289 15.7071C2.48043 15.8946 2.73478 16 3 16H14C14.2652 16 14.5196 15.8946 14.7071 15.7071C14.8946 15.5196 15 15.2652 15 15V7.5L14 8.5V15Z" fill="black"/>
<path d="M16.7652 2.92L15.0802 1.235C15.0054 1.16002 14.9166 1.10052 14.8188 1.05993C14.721 1.01934 14.6161 0.998444 14.5102 0.998444C14.4043 0.998444 14.2995 1.01934 14.2017 1.05993C14.1038 1.10052 14.015 1.16002 13.9402 1.235L7.08522 8.13L6.53022 10.535C6.50658 10.6516 6.50906 10.772 6.5375 10.8875C6.56594 11.003 6.61962 11.1107 6.69469 11.203C6.76975 11.2953 6.86433 11.3698 6.97163 11.4211C7.07893 11.4725 7.19627 11.4994 7.31522 11.5C7.3767 11.5068 7.43874 11.5068 7.50022 11.5L9.92522 10.965L16.7652 4.06C16.8402 3.98522 16.8997 3.89638 16.9403 3.79857C16.9809 3.70076 17.0018 3.5959 17.0018 3.49C17.0018 3.3841 16.9809 3.27924 16.9403 3.18143C16.8997 3.08362 16.8402 2.99478 16.7652 2.92ZM9.40522 10.04L7.57522 10.445L8.00022 8.63L13.1602 3.435L14.5702 4.845L9.40522 10.04ZM15.1352 4.28L13.7252 2.87L14.5002 2.08L15.9202 3.5L15.1352 4.28Z" fill="black"/>
</svg>
