<svg width="20" height="20" viewBox="0 0 20 20" fill="none" xmlns="http://www.w3.org/2000/svg">
<path d="M10 7.50417C10.8841 7.50417 11.7319 7.85536 12.3571 8.48048C12.9822 9.1056 13.3334 9.95345 13.3334 10.8375C13.3334 11.7216 12.9822 12.5694 12.3571 13.1945C11.7319 13.8196 10.8841 14.1708 10 14.1708C9.11597 14.1708 8.26813 13.8196 7.64301 13.1945C7.01789 12.5694 6.6667 11.7216 6.6667 10.8375C6.6667 9.95345 7.01789 9.1056 7.64301 8.48048C8.26813 7.85536 9.11597 7.50417 10 7.50417V7.50417ZM10 8.75417C9.44749 8.75417 8.91759 8.97366 8.52689 9.36436C8.13619 9.75506 7.9167 10.285 7.9167 10.8375C7.9167 11.39 8.13619 11.9199 8.52689 12.3106C8.91759 12.7013 9.44749 12.9208 10 12.9208C10.5526 12.9208 11.0825 12.7013 11.4732 12.3106C11.8639 11.9199 12.0834 11.39 12.0834 10.8375C12.0834 10.285 11.8639 9.75506 11.4732 9.36436C11.0825 8.97366 10.5526 8.75417 10 8.75417V8.75417ZM10 4.58333C13.8442 4.58333 17.1634 7.20833 18.0842 10.8867C18.1245 11.0475 18.0993 11.2177 18.0142 11.3599C17.929 11.5021 17.7908 11.6047 17.63 11.645C17.4692 11.6853 17.299 11.6601 17.1568 11.575C17.0146 11.4898 16.912 11.3516 16.8717 11.1908C16.4865 9.65984 15.601 8.30134 14.3558 7.33087C13.1106 6.3604 11.577 5.83357 9.99831 5.83395C8.4196 5.83433 6.88624 6.36191 5.64151 7.33298C4.39678 8.30405 3.51199 9.66299 3.12753 11.1942C3.08435 11.3516 2.98129 11.4859 2.84038 11.5683C2.69947 11.6508 2.53189 11.6748 2.37349 11.6353C2.21509 11.5958 2.07844 11.4958 1.99277 11.3569C1.90709 11.2179 1.87919 11.0509 1.91503 10.8917C2.36692 9.08955 3.40791 7.49005 4.8727 6.34715C6.33749 5.20424 8.14212 4.58345 10 4.58333V4.58333Z" fill="#369FFF"/>
</svg>
