<svg width="20" height="20" viewBox="0 0 20 20" fill="none" xmlns="http://www.w3.org/2000/svg">
<path d="M10 7.50418C10.8841 7.50418 11.7319 7.85537 12.3571 8.48049C12.9822 9.10561 13.3334 9.95346 13.3334 10.8375C13.3334 11.7216 12.9822 12.5694 12.3571 13.1945C11.7319 13.8197 10.8841 14.1708 10 14.1708C9.11597 14.1708 8.26813 13.8197 7.64301 13.1945C7.01789 12.5694 6.6667 11.7216 6.6667 10.8375C6.6667 9.95346 7.01789 9.10561 7.64301 8.48049C8.26813 7.85537 9.11597 7.50418 10 7.50418ZM10 8.75418C9.44749 8.75418 8.91759 8.97367 8.52689 9.36437C8.13619 9.75507 7.9167 10.285 7.9167 10.8375C7.9167 11.39 8.13619 11.9199 8.52689 12.3106C8.91759 12.7014 9.44749 12.9208 10 12.9208C10.5526 12.9208 11.0825 12.7014 11.4732 12.3106C11.8639 11.9199 12.0834 11.39 12.0834 10.8375C12.0834 10.285 11.8639 9.75507 11.4732 9.36437C11.0825 8.97367 10.5526 8.75418 10 8.75418ZM10 4.58334C13.8442 4.58334 17.1634 7.20834 18.0842 10.8867C18.1245 11.0475 18.0993 11.2177 18.0142 11.3599C17.929 11.5021 17.7908 11.6047 17.63 11.645C17.4692 11.6853 17.299 11.6602 17.1568 11.575C17.0146 11.4898 16.912 11.3516 16.8717 11.1908C16.4865 9.65985 15.601 8.30135 14.3558 7.33088C13.1106 6.36041 11.577 5.83358 9.99831 5.83396C8.4196 5.83434 6.88624 6.36192 5.64151 7.33299C4.39678 8.30406 3.51199 9.663 3.12753 11.1942C3.08435 11.3516 2.98129 11.4859 2.84038 11.5684C2.69947 11.6508 2.53189 11.6748 2.37349 11.6353C2.21509 11.5958 2.07844 11.4959 1.99277 11.3569C1.90709 11.2179 1.87919 11.0509 1.91503 10.8917C2.36692 9.08956 3.40791 7.49006 4.8727 6.34715C6.33749 5.20425 8.14212 4.58346 10 4.58334Z" fill="#369FFF"/>
<g filter="url(#filter0_d)">
<line x1="4.02826" y1="15.2935" x2="16.2935" y2="3.97174" stroke="#369FFF" stroke-linecap="round"/>
</g>
<defs>
<filter id="filter0_d" x="3.32172" y="3.2652" width="13.6783" height="13.7348" filterUnits="userSpaceOnUse" color-interpolation-filters="sRGB">
<feFlood flood-opacity="0" result="BackgroundImageFix"/>
<feColorMatrix in="SourceAlpha" type="matrix" values="0 0 0 0 0 0 0 0 0 0 0 0 0 0 0 0 0 0 127 0"/>
<feOffset dy="1"/>
<feColorMatrix type="matrix" values="0 0 0 0 0.92549 0 0 0 0 0.92549 0 0 0 0 0.92549 0 0 0 1 0"/>
<feBlend mode="normal" in2="BackgroundImageFix" result="effect1_dropShadow"/>
<feBlend mode="normal" in="SourceGraphic" in2="effect1_dropShadow" result="shape"/>
</filter>
</defs>
</svg>
