<svg width="17" height="21" viewBox="0 0 17 21" fill="none" xmlns="http://www.w3.org/2000/svg">
<path d="M8.45464 11.5256C10.0401 11.5256 11.3253 10.2403 11.3253 8.65493C11.3253 7.06952 10.0401 5.7843 8.45464 5.7843C6.86922 5.7843 5.58398 7.06952 5.58398 8.65493C5.58398 10.2403 6.86922 11.5256 8.45464 11.5256Z" stroke="#369FFF" stroke-linecap="round" stroke-linejoin="round"/>
<path d="M8.45488 1C6.42463 1 4.47753 1.80651 3.04193 3.24212C1.60632 4.67773 0.799805 6.62482 0.799805 8.65508C0.799805 10.4655 1.18447 11.6501 2.23513 12.9611L8.45488 20.1377L14.6746 12.9611C15.7253 11.6501 16.11 10.4655 16.11 8.65508C16.11 6.62482 15.3034 4.67773 13.8678 3.24212C12.4322 1.80651 10.4851 1 8.45488 1V1Z" stroke="#369FFF" stroke-linecap="round" stroke-linejoin="round"/>
</svg>
