<svg width="25" height="21" viewBox="0 0 25 21" fill="none" xmlns="http://www.w3.org/2000/svg">
<path d="M22.7232 18.1397H16.7652C15.8338 18.1397 15.1241 17.3491 15.2424 16.4579L15.819 12.2321C16.0703 10.3347 17.7409 8.91174 19.7072 8.91174C21.6439 8.91174 23.2998 10.2916 23.5807 12.1602L24.2312 16.4292C24.379 17.3347 23.6546 18.1397 22.7232 18.1397Z" fill="white" stroke="#369FFF" stroke-miterlimit="10"/>
<path d="M19.7367 6.98564C21.1084 6.98564 22.2204 5.9045 22.2204 4.57085C22.2204 3.2372 21.1084 2.15607 19.7367 2.15607C18.3649 2.15607 17.2529 3.2372 17.2529 4.57085C17.2529 5.9045 18.3649 6.98564 19.7367 6.98564Z" fill="white" stroke="#369FFF" stroke-miterlimit="10"/>
<path d="M8.23489 18.1397H2.27688C1.34548 18.1397 0.63584 17.3491 0.754113 16.4579L1.3307 12.2321C1.58203 10.3347 3.25263 8.91174 5.21893 8.91174C7.15565 8.91174 8.81148 10.2916 9.09237 12.1602L9.74288 16.4292C9.89072 17.3347 9.1663 18.1397 8.23489 18.1397Z" fill="white" stroke="#369FFF" stroke-miterlimit="10"/>
<path d="M5.24839 6.98564C6.62012 6.98564 7.73212 5.9045 7.73212 4.57085C7.73212 3.2372 6.62012 2.15607 5.24839 2.15607C3.87666 2.15607 2.76465 3.2372 2.76465 4.57085C2.76465 5.9045 3.87666 6.98564 5.24839 6.98564Z" fill="white" stroke="#369FFF" stroke-miterlimit="10"/>
<path d="M16.1297 20.2813H8.84109C7.70271 20.2813 6.83044 19.3183 6.97828 18.2259L7.68792 13.0513C7.99839 10.7371 10.0386 8.99792 12.4484 8.99792C14.8287 8.99792 16.8393 10.694 17.1941 12.9794L17.9925 18.1971C18.1551 19.2895 17.2681 20.2813 16.1297 20.2813Z" fill="white" stroke="#369FFF" stroke-miterlimit="10"/>
<path d="M12.478 6.61191C14.1519 6.61191 15.5088 5.29267 15.5088 3.6653C15.5088 2.03793 14.1519 0.718689 12.478 0.718689C10.8042 0.718689 9.44727 2.03793 9.44727 3.6653C9.44727 5.29267 10.8042 6.61191 12.478 6.61191Z" fill="white" stroke="#369FFF" stroke-miterlimit="10"/>
</svg>
