<svg width="13" height="13" viewBox="0 0 13 13" fill="none" xmlns="http://www.w3.org/2000/svg">
<path d="M8.52077 2.23574C8.52071 1.79077 8.67631 1.35994 8.96033 1.01864C9.24434 0.677343 9.6387 0.447301 10.0744 0.368765C10.5101 0.29023 10.9594 0.368201 11.3437 0.589038C11.728 0.809875 12.0228 1.15951 12.1765 1.57678C12.3303 1.99405 12.3332 2.45238 12.1847 2.87158C12.0363 3.29078 11.7459 3.64416 11.3644 3.86988C10.983 4.09561 10.5347 4.17931 10.098 4.10635C9.66136 4.03338 9.26413 3.8084 8.97582 3.47075L3.90612 5.8376C4.02267 6.20889 4.02267 6.60725 3.90612 6.97854L8.97582 9.34539C9.28058 8.98909 9.70606 8.75922 10.1698 8.70031C10.6336 8.6414 11.1026 8.75766 11.4859 9.02654C11.8692 9.29543 12.1396 9.6978 12.2447 10.1557C12.3497 10.6135 12.2819 11.0943 12.0545 11.5048C11.827 11.9153 11.456 12.2263 11.0134 12.3775C10.5708 12.5287 10.0882 12.5094 9.65898 12.3232C9.22978 12.1371 8.88461 11.7974 8.69035 11.37C8.49609 10.9426 8.46659 10.4579 8.60755 10.0099L3.53785 7.64308C3.28689 7.93709 2.95236 8.14679 2.57929 8.24396C2.20621 8.34113 1.81248 8.32111 1.45106 8.1866C1.08965 8.05209 0.777875 7.80954 0.557693 7.49158C0.337512 7.17361 0.219482 6.79549 0.219482 6.40807C0.219482 6.02065 0.337512 5.64253 0.557693 5.32456C0.777875 5.0066 1.08965 4.76405 1.45106 4.62954C1.81248 4.49502 2.20621 4.47501 2.57929 4.57218C2.95236 4.66935 3.28689 4.87905 3.53785 5.17306L8.60755 2.80621C8.54985 2.62162 8.52058 2.42923 8.52077 2.23574Z" fill="black"/>
</svg>
